<?xml version="1.0" encoding="UTF-8" standalone="no"?>
<!-- Uploaded to: SVG Repo, www.svgrepo.com, Generator: SVG Repo Mixer Tools -->

<svg
   width="16"
   height="16"
   viewBox="0 0 0.48 0.48"
   fill="none"
   version="1.1"
   id="svg1"
   sodipodi:docname="chat-round-like-svgrepo-com.svg"
   xml:space="preserve"
   inkscape:version="1.4 (e7c3feb100, 2024-10-09)"
   xmlns:inkscape="http://www.inkscape.org/namespaces/inkscape"
   xmlns:sodipodi="http://sodipodi.sourceforge.net/DTD/sodipodi-0.dtd"
   xmlns="http://www.w3.org/2000/svg"
   xmlns:svg="http://www.w3.org/2000/svg"><defs
     id="defs1" /><sodipodi:namedview
     id="namedview1"
     pagecolor="#505050"
     bordercolor="#ffffff"
     borderopacity="1"
     inkscape:showpageshadow="0"
     inkscape:pageopacity="0"
     inkscape:pagecheckerboard="1"
     inkscape:deskcolor="#d1d1d1"
     inkscape:zoom="8.72"
     inkscape:cx="7.7981651"
     inkscape:cy="6.3073395"
     inkscape:current-layer="svg1" /><path
     id="path1"
     style="stroke-width:0.0239999;fill:#ffffff;fill-opacity:1"
     d="M 0.24 0 C 0.1074516 0 0 0.1074516 0 0.24 C 0 0.2783928 0.0089927313 0.3146964 0.025019531 0.346875 C 0.029279531 0.355426 0.030712187 0.36518406 0.028242187 0.37441406 L 0.013945312 0.42785156 C 0.0077393125 0.45104256 0.028956437 0.47225469 0.052148437 0.46605469 L 0.10558594 0.45175781 C 0.11481494 0.44928781 0.124575 0.45072047 0.133125 0.45498047 C 0.1653053 0.47101447 0.201607 0.48 0.24 0.48 C 0.3725472 0.48 0.48 0.3725472 0.48 0.24 C 0.48 0.1074516 0.3725472 0 0.24 0 z M 0.17613281 0.12380859 C 0.19664176 0.12326493 0.21911793 0.13199571 0.24 0.15369141 C 0.3007473 0.090576665 0.375 0.13714328 0.375 0.20279297 C 0.375 0.26844212 0.32073667 0.30343284 0.28101562 0.33474609 C 0.26699857 0.34579584 0.2535 0.35619141 0.24 0.35619141 C 0.2265 0.35619141 0.21300102 0.34579584 0.19898437 0.33474609 C 0.15926332 0.30343284 0.105 0.26844212 0.105 0.20279297 C 0.105 0.15971036 0.13697936 0.1248465 0.17613281 0.12380859 z " /></svg>
