<?xml version="1.0" encoding="UTF-8" standalone="no"?>
<!-- Uploaded to: SVG Repo, www.svgrepo.com, Generator: SVG Repo Mixer Tools -->

<svg
   width="16"
   height="16"
   viewBox="0 0 0.48 0.48"
   fill="none"
   version="1.1"
   id="svg1"
   sodipodi:docname="cat.svg"
   inkscape:version="1.4 (e7c3feb100, 2024-10-09)"
   xmlns:inkscape="http://www.inkscape.org/namespaces/inkscape"
   xmlns:sodipodi="http://sodipodi.sourceforge.net/DTD/sodipodi-0.dtd"
   xmlns="http://www.w3.org/2000/svg"
   xmlns:svg="http://www.w3.org/2000/svg">
  <defs
     id="defs1" />
  <sodipodi:namedview
     id="namedview1"
     pagecolor="#333333"
     bordercolor="#ffffff"
     borderopacity="1"
     inkscape:showpageshadow="0"
     inkscape:pageopacity="0"
     inkscape:pagecheckerboard="1"
     inkscape:deskcolor="#000000"
     inkscape:zoom="13.38"
     inkscape:cx="2.6158445"
     inkscape:cy="3.3632287"
     inkscape:current-layer="svg1" />
  <path
     fill-rule="evenodd"
     clip-rule="evenodd"
     d="m 0.2400155,0.10396255 c -0.03305,0 -0.03634,0.00349 -0.05345,0.00349 -0.01425,0 -0.05701,-0.034883 -0.07839,-0.034883 -0.02138,0 -0.04632,0.012558 -0.04632,0.048836 v 0.041859 c 4.2e-5,0.010988 0.004,0.04467 0.01966,0.035669 -0.01847,0.021834 -0.02034,0.047293 -0.02009,0.07194 -0.005,0.00144 -0.01005,0.00306 -0.01498,0.00474 -0.01527,0.00522 -0.03146,0.011879 -0.03878,0.016603 -0.0078,0.00502 -0.01,0.015382 -0.005,0.023149 0.005,0.00777 0.01538,0.01 0.02315,0.00498 0.0035,-0.00225 0.0161,-0.0078 0.03144,-0.013047 0.0017,-5.804e-4 0.0034,-0.00115 0.0051,-0.00169 10e-4,0.00968 0.0036,0.018525 0.0074,0.02658 l -5.26e-4,2.769e-4 c -0.0091,0.00483 -0.01763,0.010383 -0.02305,0.013922 -9.36e-4,6.117e-4 -0.0018,0.00116 -0.0025,0.00164 -0.0078,0.00502 -0.01,0.015382 -0.005,0.023149 0.005,0.00777 0.01538,0.01 0.02315,0.00498 9.18e-4,-5.939e-4 0.0019,-0.00123 0.0029,-0.00191 0.0055,-0.00357 0.01248,-0.00815 0.02011,-0.012181 0.0018,-9.466e-4 0.0035,-0.0018 0.0052,-0.00258 0.03863,0.03622 0.10798,0.047945 0.149955,0.047945 0.04197,0 0.111326,-0.011725 0.149955,-0.047945 0.0016,7.724e-4 0.0034,0.00163 0.0052,0.00258 0.0076,0.00403 0.01464,0.00861 0.02012,0.012181 0.001,6.742e-4 0.002,0.00131 0.0029,0.00191 0.0078,0.00502 0.01813,0.00279 0.02315,-0.00498 0.005,-0.00777 0.0028,-0.018132 -0.005,-0.023149 -7.39e-4,-4.777e-4 -0.0016,-0.00103 -0.0025,-0.00164 -0.0054,-0.00354 -0.0139,-0.00909 -0.02305,-0.013922 l -5.25e-4,-2.769e-4 c 0.0038,-0.00806 0.0064,-0.016895 0.0074,-0.026582 0.0017,5.469e-4 0.0034,0.00111 0.0051,0.00169 0.01534,0.00524 0.02795,0.010794 0.03144,0.013047 0.0078,0.00502 0.01813,0.00279 0.02315,-0.00498 0.005,-0.00777 0.0028,-0.018132 -0.005,-0.023149 -0.0073,-0.00472 -0.02351,-0.011381 -0.03878,-0.016603 -0.0049,-0.00169 -0.01001,-0.0033 -0.01499,-0.00474 2.53e-4,-0.024647 -0.0016,-0.050104 -0.02009,-0.071938 0.01563,0.009 0.01962,-0.024681 0.01966,-0.035669 v -0.041857 c 0,-0.036278 -0.02494,-0.048836 -0.04632,-0.048836 -0.02138,0 -0.06414,0.03488 -0.07839,0.03488 -0.0171,0 -0.0204,-0.00349 -0.05345,-0.00349 z m -0.01508,0.2052571 c 0.0045,-0.00154 0.0099,-0.00224 0.01508,-0.00224 0.0052,0 0.01056,7.01e-4 0.01508,0.00224 0.0022,7.546e-4 0.0049,0.00195 0.0073,0.00387 0.0024,0.00193 0.0055,0.00551 0.0055,0.010631 0,0.00512 -0.0031,0.0087 -0.0055,0.010631 -0.0024,0.00192 -0.0051,0.00312 -0.0073,0.00387 -0.0045,0.00154 -0.0099,0.00224 -0.01508,0.00224 -0.0052,0 -0.01056,-7.01e-4 -0.01508,-0.00224 -0.0022,-7.546e-4 -0.0049,-0.00195 -0.0073,-0.00387 -0.0024,-0.00193 -0.0055,-0.00551 -0.0055,-0.010631 0,-0.00512 0.0031,-0.0087 0.0055,-0.010631 0.0024,-0.00192 0.0051,-0.00312 0.0073,-0.00387 z m 0.06353,-0.069205 c 0.003,-0.0051 0.0091,-0.011174 0.01808,-0.011174 0.009,0 0.01504,0.00607 0.01808,0.011174 0.0032,0.00532 0.0047,0.011763 0.0047,0.018128 0,0.00636 -0.0015,0.01281 -0.0047,0.018128 -0.003,0.0051 -0.0091,0.011174 -0.01808,0.011174 -0.009,0 -0.01504,-0.00607 -0.01808,-0.011174 -0.0032,-0.00532 -0.0047,-0.011763 -0.0047,-0.018128 0,-0.00636 0.0015,-0.01281 0.0047,-0.018128 z m -0.133056,0 c 0.003,-0.0051 0.0091,-0.011174 0.01808,-0.011174 0.009,0 0.01504,0.00607 0.01808,0.011174 0.0032,0.00532 0.0047,0.011763 0.0047,0.018128 0,0.00636 -0.0015,0.01281 -0.0047,0.018128 -0.003,0.0051 -0.0091,0.011174 -0.01808,0.011174 -0.009,0 -0.01504,-0.00607 -0.01808,-0.011174 -0.0032,-0.00532 -0.0047,-0.011763 -0.0047,-0.018128 0,-0.00636 0.0015,-0.01281 0.0047,-0.018128 z"
     fill="#1c274c"
     id="path1"
     style="stroke-width:0.022325;fill:#ffffff;fill-opacity:1" />
</svg>
