<?xml version="1.0" encoding="UTF-8" standalone="no"?>
<svg
   width="16"
   height="16"
   viewBox="0 0 0.95 0.95"
   id="svg2"
   version="1.1"
   xml:space="preserve"
   sodipodi:docname="coffee.svg"
   inkscape:version="1.4 (e7c3feb100, 2024-10-09)"
   xmlns:inkscape="http://www.inkscape.org/namespaces/inkscape"
   xmlns:sodipodi="http://sodipodi.sourceforge.net/DTD/sodipodi-0.dtd"
   xmlns="http://www.w3.org/2000/svg"
   xmlns:svg="http://www.w3.org/2000/svg"><sodipodi:namedview
   id="namedview1"
   pagecolor="#333333"
   bordercolor="#ffffff"
   borderopacity="1"
   inkscape:showpageshadow="0"
   inkscape:pageopacity="0"
   inkscape:pagecheckerboard="1"
   inkscape:deskcolor="#000000"
   inkscape:zoom="21.750605"
   inkscape:cx="-5.0573307"
   inkscape:cy="0.45975733"
   inkscape:current-layer="g10" />

<defs
   id="defs6">

<clipPath
   clipPathUnits="userSpaceOnUse"
   id="clipPath16">

<path
   d="M 0,38 H 38 V 0 H 0 Z"
   id="path18" />

</clipPath>

<clipPath
   clipPathUnits="userSpaceOnUse"
   id="clipPath40">

<path
   d="M 0,38 H 38 V 0 H 0 Z"
   id="path42" />

</clipPath>

</defs>

<g
   id="g10"
   transform="matrix(0.06535614,0,0,-0.06535614,-0.83185027,1.6089124)">

<path
   id="path2"
   style="display:inline;opacity:1;fill:#ffffff;stroke:none;stroke-width:1.15921;stroke-linejoin:round;paint-order:markers stroke fill"
   inkscape:label="base"
   d="M 15.433892 -17.541379 A 6.2720318 3.4844618 0 0 0 15.043528 -17.383459 C 15.070628 -17.299674 15.101155 -17.217121 15.146442 -17.13682 C 15.824989 -15.933661 16.80627 -14.980945 19.000401 -14.980945 C 20.353561 -14.980945 21.212837 -15.405155 21.869578 -16.0438 L 21.869578 -16.938089 A 0.71257123 0.71257123 0 0 1 22.009754 -17.360392 C 21.110246 -17.099463 20.092436 -16.962934 19.000401 -16.96293 C 17.677205 -16.962934 16.459197 -17.16162 15.433892 -17.541379 z M 13.102354 -15.848618 A 6.2720318 3.4844618 0 0 0 12.727959 -14.686397 A 6.2720318 3.4844618 0 0 0 19.000401 -11.20151 A 6.2720318 3.4844618 0 0 0 25.272844 -14.686397 A 6.2720318 3.4844618 0 0 0 25.2551 -14.851415 C 24.634564 -14.669873 24.135311 -14.605583 23.76107 -14.57816 C 22.679309 -13.449836 21.093818 -12.56601 19.000401 -12.56601 C 16.06042 -12.56601 14.104673 -14.143381 13.102354 -15.848618 z "
   transform="scale(1,-1)" />



<ellipse
   style="display:inline;opacity:1;fill:#ffffff;stroke:none;stroke-width:0.398954;stroke-linejoin:round;paint-order:markers stroke fill"
   id="ellipse1"
   cx="19.0333"
   cy="-20.430765"
   rx="3.6641603"
   ry="1.0432081"
   transform="scale(1,-1)"
   inkscape:label="liquid" /><path
   style="fill:#ffffff;paint-order:stroke fill markers"
   d="M -2.6624897e-4,27.907218 A 16.999996,8.9439994 0 0 1 -16.995736,19.000125 h -0.0043 c 0,-0.008 7.82e-4,-0.01986 7.98e-4,-0.02796 a 16.999996,8.9439994 0 0 1 -0.0011,-0.0091 16.999996,8.9439994 0 0 1 0.0019,-0.01491 C -16.983082,14.881996 -14.902386,6.6231532e-5 0,6.6231532e-5 c 5.7583846,0 9.593235,2.492058768468 12.14042,5.676694168468 0.398862,0.00322 2.801333,0.054247 5.392873,0.9041815 1.413424,0.4635551 2.898396,1.1635677 4.108488,2.3541734 1.210089,1.1906027 2.074079,2.9391317 2.074079,5.0166627 0,3.087846 -1.780324,5.105879 -3.4418,5.941612 -1.661476,0.835719 -3.273265,0.812858 -3.273265,0.812858 H 16.632307 A 16.999996,8.9439994 0 0 1 -2.6624897e-4,27.907218 Z M 0,25.426842 A 14.273709,6.4030618 0 0 0 14.273607,19.023821 14.273709,6.4030618 0 0 0 0,12.6208 14.273709,6.4030618 0 0 0 -14.273607,19.023821 14.273709,6.4030618 0 0 0 0,25.426842 Z m 16.840513,-8.128581 h 0.160282 c 0,0 0.890854,-0.02274 1.737541,-0.448629 0.846684,-0.425888 1.569538,-0.939216 1.569538,-2.897854 0,-1.21159 -0.383495,-1.924421 -1.053814,-2.583946 C 18.583741,10.708307 17.562087,10.173795 16.468297,9.8150681 15.772652,9.5869513 15.073429,9.4354725 14.43309,9.3270337 c 1.485611,3.0331603 2.144912,6.0836453 2.407423,7.9712273 z"
   id="path3"
   transform="matrix(0.34844619,0,0,0.34844619,19,13.773307)" /></g>

</svg>
