<?xml version="1.0" encoding="UTF-8" standalone="no"?>
<!-- Uploaded to: SVG Repo, www.svgrepo.com, Generator: SVG Repo Mixer Tools -->

<svg
   width="16"
   height="16"
   viewBox="0 0 0.48 0.48"
   version="1.1"
   id="svg2"
   sodipodi:docname="earth.svg"
   inkscape:version="1.4 (e7c3feb100, 2024-10-09)"
   xmlns:inkscape="http://www.inkscape.org/namespaces/inkscape"
   xmlns:sodipodi="http://sodipodi.sourceforge.net/DTD/sodipodi-0.dtd"
   xmlns="http://www.w3.org/2000/svg"
   xmlns:svg="http://www.w3.org/2000/svg">
  <defs
     id="defs2" />
  <sodipodi:namedview
     id="namedview2"
     pagecolor="#505050"
     bordercolor="#ffffff"
     borderopacity="1"
     inkscape:showpageshadow="0"
     inkscape:pageopacity="0"
     inkscape:pagecheckerboard="1"
     inkscape:deskcolor="#d1d1d1"
     inkscape:zoom="24.663884"
     inkscape:cx="5.8182238"
     inkscape:cy="6.2844926"
     inkscape:current-layer="svg2" />
  <path
     d="M 0.10164,0.106872 A 0.192,0.192 0 0 0 0.313248,0.417528 C 0.316008,0.399528 0.30996,0.382248 0.307488,0.3762 0.301968,0.36276 0.283776,0.339792 0.253416,0.307944 0.245304,0.299424 0.245832,0.292872 0.248736,0.273456 l 3.12e-4,-0.00218 C 0.251016,0.257976 0.254328,0.250104 0.299088,0.243 0.32184,0.2394 0.327816,0.248472 0.336096,0.261072 L 0.33888,0.2652 c 0.00787,0.01152 0.013704,0.01416 0.022512,0.018144 0.00396,0.0018 0.00888,0.00408 0.01548,0.0078 C 0.39252,0.300096 0.39252,0.3102 0.39252,0.332328 v 0.00252 c 0,0.00938 -9.12e-4,0.01764 -0.00235,0.024816 A 0.192048,0.192048 0 0 0 0.315648,0.06348 C 0.302376,0.072432 0.28416,0.085128 0.2778,0.09384 0.27456,0.09828 0.269952,0.121008 0.255,0.12288 0.251112,0.12336 0.245856,0.123024 0.240288,0.122664 0.22536,0.121704 0.20496,0.120384 0.198432,0.13812 0.19428,0.149352 0.19356,0.17988 0.206976,0.19572 0.209136,0.19824 0.209544,0.20292 0.20808,0.208176 0.20616,0.215064 0.202296,0.219264 0.201072,0.220128 0.198768,0.218784 0.19416,0.213432 0.191016,0.209808 0.183504,0.201048 0.174096,0.190128 0.161952,0.186768 0.157536,0.185544 0.152688,0.184536 0.14796,0.183528 0.134784,0.180768 0.11988,0.177624 0.1164,0.170232 0.113856,0.164808 0.11388,0.157344 0.11388,0.149472 c 0,-0.010008 0,-0.021312 -0.0049,-0.03228 A 0.030624,0.030624 0 0 0 0.10164,0.106872 Z M 0.24,0.48 C 0.107448,0.48 0,0.372552 0,0.24 0,0.107448 0.107448,0 0.24,0 0.372552,0 0.48,0.107448 0.48,0.24 0.48,0.372552 0.372552,0.48 0.24,0.48 Z"
     id="path2"
     style="fill:#ffffff;fill-opacity:1;stroke-width:0.024" />
</svg>
