<?xml version="1.0" encoding="UTF-8" standalone="no"?>
<!-- Uploaded to: SVG Repo, www.svgrepo.com, Generator: SVG Repo Mixer Tools -->

<svg
   width="16"
   height="16"
   viewBox="0 0 0.48 0.48"
   fill="none"
   version="1.1"
   id="svg1"
   sodipodi:docname="game.svg"
   inkscape:version="1.4 (e7c3feb100, 2024-10-09)"
   xmlns:inkscape="http://www.inkscape.org/namespaces/inkscape"
   xmlns:sodipodi="http://sodipodi.sourceforge.net/DTD/sodipodi-0.dtd"
   xmlns="http://www.w3.org/2000/svg"
   xmlns:svg="http://www.w3.org/2000/svg">
  <defs
     id="defs1" />
  <sodipodi:namedview
     id="namedview1"
     pagecolor="#333333"
     bordercolor="#ffffff"
     borderopacity="1"
     inkscape:showpageshadow="0"
     inkscape:pageopacity="0"
     inkscape:pagecheckerboard="1"
     inkscape:deskcolor="#000000"
     inkscape:zoom="28.36"
     inkscape:cx="9.0973202"
     inkscape:cy="11.424542"
     inkscape:window-width="1920"
     inkscape:window-height="1020"
     inkscape:window-x="0"
     inkscape:window-y="28"
     inkscape:window-maximized="1"
     inkscape:current-layer="svg1" />
  <path
     id="path16"
     style="color:#000000;display:inline;fill:#ffffff;stroke-width:0.0227819;stroke-linecap:round;stroke-linejoin:round;-inkscape-stroke:none"
     d="m 0.20466944,0.06344383 c -0.0597998,0 -0.0919969,-7.6544e-4 -0.12058295,0.01303763 C 0.06032534,0.08795571 0.04058107,0.10632548 0.02744387,0.12920888 0.01163883,0.15673903 0.01007959,0.18894358 0.00581897,0.24859047 L 2.12641e-4,0.32703687 c -0.003437091,0.048116 0.035101059,0.0895258 0.083340049,0.0895258 0.02478605,0 0.04833966,-0.0110382 0.06420736,-0.03008 l 0.008544,-0.0102326 c 0.007819,-0.009382 0.0112358,-0.0133153 0.0141496,-0.0157969 0.007001,-0.00596 0.0154613,-0.00992 0.0245176,-0.0114794 0.003771,-6.5008e-4 0.008968,-7.5555e-4 0.021179,-7.5555e-4 h 0.0477003 c 0.0122115,0 0.0174091,1.0591e-4 0.0211791,7.5555e-4 0.009055,0.00156 0.0175648,0.005522 0.0245616,0.0114794 0.002914,0.002481 0.00629,0.006417 0.0141055,0.0157969 l 0.008544,0.0102326 c 0.0158674,0.0190421 0.0394213,0.03008 0.0642074,0.03008 0.0482386,0 0.0867758,-0.0414101 0.08334,-0.0895258 l -0.005605,-0.0784464 c -0.004263,-0.0596467 -0.005778,-0.0918517 -0.021581,-0.11938159 -0.0131379,-0.022883 -0.032883,-0.04125382 -0.056644,-0.05272742 C 0.36737086,0.0626785 0.33513022,0.06344383 0.27533031,0.06344383 Z m -0.0775107,0.0797372 a 0.02562955,0.02562955 0 0 1 0.0256295,0.0256296 v 0.0199337 h 0.0199337 a 0.02562955,0.02562955 0 0 1 0.0256295,0.0256296 0.02562955,0.02562955 0 0 1 -0.0256295,0.0256295 h -0.0199337 v 0.0199337 a 0.02562955,0.02562955 0 0 1 -0.0256295,0.0256295 0.02562955,0.02562955 0 0 1 -0.0256296,-0.0256295 V 0.24000323 H 0.08159427 A 0.02562955,0.02562955 0 0 1 0.05596472,0.21437369 0.02562955,0.02562955 0 0 1 0.08159427,0.18874415 H 0.10152931 V 0.1688106 a 0.02562955,0.02562955 0 0 1 0.0256294,-0.0256296 z m 0.22465092,0.00213 a 0.02554383,0.02554383 0 0 1 0.0255442,0.0255428 0.02554383,0.02554383 0 0 1 -0.0255442,0.0255441 0.02554383,0.02554383 0 0 1 -0.025544,-0.0255441 0.02554383,0.02554383 0 0 1 0.025544,-0.0255428 z m -0.0510882,0.051087 a 0.02554383,0.02554383 0 0 1 0.025544,0.025544 0.02554383,0.02554383 0 0 1 -0.025544,0.0255443 0.02554383,0.02554383 0 0 1 -0.0255428,-0.0255443 0.02554383,0.02554383 0 0 1 0.0255428,-0.025544 z m 0.10217646,0 a 0.02554383,0.02554383 0 0 1 0.0255428,0.025544 0.02554383,0.02554383 0 0 1 -0.0255428,0.0255443 0.02554383,0.02554383 0 0 1 -0.025544,-0.0255443 0.02554383,0.02554383 0 0 1 0.025544,-0.025544 z m -0.0510882,0.0510882 a 0.02554383,0.02554383 0 0 1 0.0255442,0.025544 0.02554383,0.02554383 0 0 1 -0.0255442,0.0255428 0.02554383,0.02554383 0 0 1 -0.025544,-0.0255428 0.02554383,0.02554383 0 0 1 0.025544,-0.025544 z" />
</svg>
