<?xml version="1.0" encoding="UTF-8" standalone="no"?>
<!-- Uploaded to: SVG Repo, www.svgrepo.com, Generator: SVG Repo Mixer Tools -->

<svg
   width="16"
   height="16"
   viewBox="0 0 1.28 1.28"
   version="1.1"
   xml:space="preserve"
   style="clip-rule:evenodd;fill-rule:evenodd;stroke-linejoin:round;stroke-miterlimit:2"
   id="svg1"
   sodipodi:docname="github-1.svg"
   inkscape:version="1.4 (e7c3feb100, 2024-10-09)"
   xmlns:inkscape="http://www.inkscape.org/namespaces/inkscape"
   xmlns:sodipodi="http://sodipodi.sourceforge.net/DTD/sodipodi-0.dtd"
   xmlns="http://www.w3.org/2000/svg"
   xmlns:svg="http://www.w3.org/2000/svg"><defs
   id="defs1" /><sodipodi:namedview
   id="namedview1"
   pagecolor="#333"
   bordercolor="#fff"
   borderopacity="1"
   inkscape:showpageshadow="0"
   inkscape:pageopacity="0"
   inkscape:pagecheckerboard="1"
   inkscape:deskcolor="#000"
   inkscape:zoom="2.3652722"
   inkscape:cx="-100.83406"
   inkscape:cy="-19.025295"
   inkscape:current-layer="svg1" />
<path
   id="github"
   d="M 0.6399334,0.0157904 C 0.2865306,0.0157904 0,0.302321 0,0.6558303 c 0,0.2827489 0.1833593,0.5226208 0.4376922,0.607283 0.032011,0.00586 0.043676,-0.013902 0.043676,-0.030893 0,-0.015153 -5.326e-4,-0.055421 -8.522e-4,-0.1088172 -0.178033,0.038669 -0.2155837,-0.085807 -0.2155837,-0.085807 -0.029108,-0.073903 -0.07108,-0.093584 -0.07108,-0.093584 -0.05811,-0.039734 0.00439,-0.038936 0.00439,-0.038936 0.064236,0.00455 0.098031,0.065967 0.098031,0.065967 0.057098,0.097792 0.1498034,0.069535 0.1862622,0.053183 0.00583,-0.041359 0.022317,-0.069562 0.04064,-0.085568 -0.1421068,-0.016139 -0.2915374,-0.07108 -0.2915374,-0.3163048 0,-0.069855 0.024954,-0.1270067 0.065887,-0.1717479 -0.00658,-0.016192 -0.028549,-0.081253 0.00626,-0.1693777 0,0 0.053743,-0.017204 0.176009,0.06562 0.051053,-0.014195 0.1058078,-0.021305 0.1602164,-0.021545 0.054355,2.396e-4 0.1091101,0.00735 0.160243,0.021545 0.1221863,-0.082825 0.1758226,-0.06562 0.1758226,-0.06562 0.034914,0.088124 0.012943,0.1531856 0.00637,0.1693777 0.041013,0.044741 0.065807,0.1018929 0.065807,0.1717479 0,0.245864 -0.1496702,0.299953 -0.2922564,0.3157988 0.02301,0.019761 0.043463,0.058803 0.043463,0.1185378 0,0.085541 -7.723e-4,0.1545704 -7.723e-4,0.1755296 0,0.017151 0.011505,0.037071 0.043995,0.030813 C 1.0968004,1.1782114 1.28,0.9384993 1.28,0.6558303 1.28,0.302321 0.9934428,0.0157904 0.6399334,0.0157904"
   style="fill:#ffffff;stroke-width:0.0266317" />
</svg>
