<?xml version="1.0" encoding="UTF-8" standalone="no"?>
<!-- Uploaded to: SVG Repo, www.svgrepo.com, Generator: SVG Repo Mixer Tools -->

<svg
   fill="#ffffff"
   width="16"
   height="16"
   viewBox="0 0 0.64 0.64"
   enable-background="new 0 0 32 32"
   id="Glyph"
   version="1.1"
   xml:space="preserve"
   sodipodi:docname="home.svg"
   inkscape:version="1.4 (e7c3feb100, 2024-10-09)"
   xmlns:inkscape="http://www.inkscape.org/namespaces/inkscape"
   xmlns:sodipodi="http://sodipodi.sourceforge.net/DTD/sodipodi-0.dtd"
   xmlns="http://www.w3.org/2000/svg"
   xmlns:svg="http://www.w3.org/2000/svg"><defs
     id="defs1" /><sodipodi:namedview
     id="namedview1"
     pagecolor="#505050"
     bordercolor="#ffffff"
     borderopacity="1"
     inkscape:showpageshadow="0"
     inkscape:pageopacity="0"
     inkscape:pagecheckerboard="1"
     inkscape:deskcolor="#d1d1d1"
     inkscape:zoom="34.88"
     inkscape:cx="0.086009175"
     inkscape:cy="11.353211"
     inkscape:current-layer="Glyph" /><path
     d="m 0.63687585,0.3316768 c -0.00706,0.018815 -0.024554,0.030975 -0.044585,0.030975 h -0.016298 V 0.597308 c 0,0.011776 -0.00956,0.021332 -0.021332,0.021332 H 0.42666655 V 0.4693133 c 0,-0.058813 -0.047848,-0.1066619 -0.1066619,-0.1066619 -0.058813,0 -0.1066619,0.047849 -0.1066619,0.1066619 V 0.61864 h -0.1279942 c -0.011775,0 -0.021332,-0.00956 -0.021332,-0.021332 V 0.3626514 h -0.016319 c -0.020031,0 -0.037524,-0.012138 -0.044585,-0.030953 -0.007061,-0.018815 -0.00188,-0.039508 0.013226,-0.052691 L 0.26547915,0.043071 c 0.030591,-0.028948 0.078482,-0.028948 0.1090511,0 l 0.2497382,0.2364908 c 0.014463,0.012607 0.019668,0.0333 0.0126074,0.052115 z"
     id="XMLID_219_"
     style="stroke-width:0.0213324"
     inkscape:label="home" /></svg>
