<?xml version="1.0" encoding="UTF-8" standalone="no"?>
<!-- Uploaded to: SVG Repo, www.svgrepo.com, Generator: SVG Repo Mixer Tools -->

<svg
   width="16"
   height="16"
   viewBox="0 0 0.48 0.48"
   fill="none"
   version="1.1"
   id="svg1"
   sodipodi:docname="json.svg"
   inkscape:version="1.4 (e7c3feb100, 2024-10-09)"
   xml:space="preserve"
   xmlns:inkscape="http://www.inkscape.org/namespaces/inkscape"
   xmlns:sodipodi="http://sodipodi.sourceforge.net/DTD/sodipodi-0.dtd"
   xmlns="http://www.w3.org/2000/svg"
   xmlns:svg="http://www.w3.org/2000/svg"><defs
     id="defs1" /><sodipodi:namedview
     id="namedview1"
     pagecolor="#333333"
     bordercolor="#ffffff"
     borderopacity="1"
     inkscape:showpageshadow="0"
     inkscape:pageopacity="0"
     inkscape:pagecheckerboard="1"
     inkscape:deskcolor="#000000"
     inkscape:zoom="26.759999"
     inkscape:cx="4.7832587"
     inkscape:cy="6.2032886"
     inkscape:current-layer="svg1" /><path
     id="path1"
     style="fill:#ffffff;fill-opacity:1;stroke:#ffffff;stroke-width:0.0258065;stroke-dasharray:none;stroke-opacity:1"
     d="m 0.11612902,0.11612902 a 0.04129032,0.04129032 0 0 1 0.0412903,-0.04129032 0.02064516,0.02064516 0 0 0 0,-0.04129032 0.08258065,0.08258065 0 0 0 -0.08258065,0.08258064 v 0.0619355 a 0.04129032,0.04129032 0 0 1 -0.04129032,0.0412903 0.02064516,0.02064516 0 0 0 0,0.0412903 0.04129032,0.04129032 0 0 1 0.04129032,0.0412903 v 0.0619355 a 0.08258065,0.08258065 0 0 0 0.08258065,0.0825806 0.02064516,0.02064516 0 0 0 0,-0.0412903 0.04129032,0.04129032 0 0 1 -0.0412903,-0.0412903 V 0.30193548 A 0.08258065,0.08258065 0 0 0 0.08763869,0.24 0.08258065,0.08258065 0 0 0 0.11612902,0.17806451 Z m 0.33032259,0.10322581 a 0.04129032,0.04129032 0 0 1 -0.0412903,-0.0412903 v -0.0619355 a 0.08258065,0.08258065 0 0 0 -0.0825807,-0.08258064 0.02064516,0.02064516 0 0 0 0,0.04129032 0.04129032,0.04129032 0 0 1 0.0412903,0.04129032 v 0.0619355 a 0.08258065,0.08258065 0 0 0 0.0284903,0.0619355 0.08258065,0.08258065 0 0 0 -0.0284903,0.0619355 v 0.0619355 a 0.04129032,0.04129032 0 0 1 -0.0412903,0.0412903 0.02064516,0.02064516 0 0 0 0,0.0412903 0.08258065,0.08258065 0 0 0 0.0825807,-0.0825806 v -0.0619355 a 0.04129032,0.04129032 0 0 1 0.0412903,-0.0412903 0.0206452,0.0206452 0 0 0 0,-0.0412904 z" /></svg>
