<?xml version="1.0" encoding="UTF-8" standalone="no"?>
<!-- Uploaded to: SVG Repo, www.svgrepo.com, Transformed by: SVG Repo Mixer Tools -->

<svg
   width="16"
   height="16"
   viewBox="0 0 4 4"
   fill="#000000"
   version="1.1"
   id="svg1"
   sodipodi:docname="linkedin-svgrepo-com (1).svg"
   inkscape:version="1.4 (e7c3feb100, 2024-10-09)"
   xmlns:inkscape="http://www.inkscape.org/namespaces/inkscape"
   xmlns:sodipodi="http://sodipodi.sourceforge.net/DTD/sodipodi-0.dtd"
   xmlns="http://www.w3.org/2000/svg"
   xmlns:svg="http://www.w3.org/2000/svg">
  <defs
     id="defs1" />
  <sodipodi:namedview
     id="namedview1"
     pagecolor="#505050"
     bordercolor="#ffffff"
     borderopacity="1"
     inkscape:showpageshadow="0"
     inkscape:pageopacity="0"
     inkscape:pagecheckerboard="1"
     inkscape:deskcolor="#d1d1d1"
     inkscape:zoom="26.0625"
     inkscape:cx="3.7026379"
     inkscape:cy="11.01199"
     inkscape:current-layer="svg1" />
  <path
     fill-rule="evenodd"
     clip-rule="evenodd"
     d="M 3,1 A 2,2 0 0 0 1,3 v 10 a 2,2 0 0 0 2,2 h 10 a 2,2 0 0 0 2,-2 V 3 A 2,2 0 0 0 13,1 Z m 1.102,4.297 a 1.195,1.195 0 1 0 0,-2.39 1.195,1.195 0 0 0 0,2.39 z m 1,7.516 V 6.234 h -2 v 6.579 z M 6.43,6.234 h 2 v 0.881 c 0.295,-0.462 0.943,-1.084 2.148,-1.084 1.438,0 2.219,0.953 2.219,2.766 0,0.087 0.008,0.484 0.008,0.484 v 3.531 h -2 v -3.53 c 0,-0.485 -0.102,-1.438 -1.18,-1.438 -1.079,0 -1.17,1.198 -1.195,1.982 v 2.986 h -2 V 6.234 Z"
     fill="#000000"
     id="path1"
     transform="matrix(0.2857143,0,0,0.2857143,-0.28571433,-0.28571433)"
     style="fill:#ffffff;fill-opacity:1" />
</svg>
