<?xml version="1.0" encoding="UTF-8" standalone="no"?>
<svg
   width="16"
   height="16"
   version="1.1"
   id="svg1"
   sodipodi:docname="tulip.svg"
   inkscape:version="1.4.2 (ebf0e940d0, 2025-05-08)"
   xml:space="preserve"
   xmlns:inkscape="http://www.inkscape.org/namespaces/inkscape"
   xmlns:sodipodi="http://sodipodi.sourceforge.net/DTD/sodipodi-0.dtd"
   xmlns="http://www.w3.org/2000/svg"
   xmlns:svg="http://www.w3.org/2000/svg"><defs
     id="defs1"><inkscape:path-effect
       effect="fillet_chamfer"
       id="path-effect25"
       is_visible="true"
       lpeversion="1"
       nodesatellites_param="F,0,0,1,0,0,0,1 @ F,0,1,1,0,1,0,1 @ F,0,1,1,0,1,0,1 @ F,0,0,1,0,0,0,1"
       radius="2"
       unit="px"
       method="auto"
       mode="F"
       chamfer_steps="1"
       flexible="false"
       use_knot_distance="true"
       apply_no_radius="true"
       apply_with_radius="true"
       only_selected="true"
       hide_knots="false" /></defs><sodipodi:namedview
     id="namedview1"
     pagecolor="#505050"
     bordercolor="#ffffff"
     borderopacity="1"
     inkscape:showpageshadow="0"
     inkscape:pageopacity="0"
     inkscape:pagecheckerboard="1"
     inkscape:deskcolor="#d1d1d1"
     inkscape:zoom="40.349281"
     inkscape:cx="5.6382665"
     inkscape:cy="9.0707936"
     inkscape:current-layer="svg1" /><g
     style="fill:#ffffff;fill-opacity:1"
     id="g1"
     transform="matrix(0.19460564,0,0,0.19460564,0.02893892,0.0289405)"
     inkscape:label="icon"><g
       id="g8"
       transform="matrix(1.9584749,0,0,1.9584749,-150.68418,1.8747786)"
       style="display:inline;fill:#ffffff;fill-opacity:1"><path
         d="m 83.527129,21.365078 c 0,-4.662871 0.705439,-10.12366 1.935356,-14.9820505 0.33888,-1.3390374 0.772319,-2.8470344 1.313278,-4.3849514 L 84.980726,0.89103826 83.371609,3.2823936 c -0.265599,0.3945592 -6.507987,9.7715014 -6.507987,18.5166034 0,5.747189 1.385437,10.24078 4.117752,13.355814 2.588635,2.951355 6.224148,4.548311 10.814539,4.759191 -5.06767,-3.590393 -8.268784,-11.371658 -8.268784,-18.548924 z"
         id="path2"
         style="fill:#ffffff;fill-opacity:1;stroke-width:0.16" /><path
         d="m 112.33603,3.2820736 -1.60911,-2.39135534 -1.79504,1.10703784 c 0.54096,1.538077 0.9744,3.045914 1.31328,4.3851114 1.22975,4.8585505 1.93535,10.3191795 1.93535,14.9820505 0,7.177266 -3.20111,14.958531 -8.26878,18.548604 4.59055,-0.21088 8.22606,-1.807836 10.81454,-4.759191 2.73231,-3.115034 4.11775,-7.608625 4.11775,-13.355814 0,-8.744942 -6.24239,-18.1218842 -6.50799,-18.5164434 z"
         id="path1-3"
         style="fill:#ffffff;fill-opacity:1;stroke-width:0.16" /><path
         d="M 101.54053,0 97.853981,2.6534348 94.167108,0 c -2.633594,4.8505505 -4.642871,13.742853 -4.642871,21.365078 0,7.220306 4.203672,14.576612 8.329584,14.576612 4.125909,0 8.329579,-7.356466 8.329579,-14.576612 0,-7.622225 -2.00927,-16.5145275 -4.64287,-21.365078 z"
         id="path6"
         style="fill:#ffffff;fill-opacity:1;stroke-width:0.16" /></g></g></svg>
