<?xml version="1.0" encoding="UTF-8" standalone="no"?>
<!-- Uploaded to: SVG Repo, www.svgrepo.com, Generator: SVG Repo Mixer Tools -->

<svg
   fill="#ffffff"
   width="16"
   height="16"
   viewBox="0 0 0.64 0.64"
   enable-background="new 0 0 32 32"
   id="Glyph"
   version="1.1"
   xml:space="preserve"
   sodipodi:docname="vector.svg"
   inkscape:version="1.4 (e7c3feb100, 2024-10-09)"
   xmlns:inkscape="http://www.inkscape.org/namespaces/inkscape"
   xmlns:sodipodi="http://sodipodi.sourceforge.net/DTD/sodipodi-0.dtd"
   xmlns="http://www.w3.org/2000/svg"
   xmlns:svg="http://www.w3.org/2000/svg"><defs
     id="defs1" /><sodipodi:namedview
     id="namedview1"
     pagecolor="#333333"
     bordercolor="#ffffff"
     borderopacity="1"
     inkscape:showpageshadow="0"
     inkscape:pageopacity="0"
     inkscape:pagecheckerboard="1"
     inkscape:deskcolor="#000000"
     inkscape:zoom="34.88"
     inkscape:cx="9.8193807"
     inkscape:cy="8.543578"
     inkscape:current-layer="Glyph" /><path
     d="m 0.232722,0.14545435 c 0,-0.03213 0.02605,-0.05818 0.05818,-0.05818 h 0.05818 c 0.03213,0 0.05818,0.02605 0.05818,0.05818 H 0.53141 c 0.01006,-0.01739 0.02886,-0.02909 0.0504,-0.02909 0.03213,0 0.05818,0.02605 0.05818,0.05818 0,0.03213 -0.02605,0.05818 -0.05818,0.05818 -0.02154,0 -0.04034,-0.0117 -0.0504,-0.02909 H 0.43275 c 0.0635,0.03524 0.108788,0.09932 0.11817,0.1745453 h 0.0018 c 0.03213,0 0.05818,0.026048 0.05818,0.058182 v 0.058182 c 0,0.032134 -0.02605,0.058182 -0.05818,0.058182 H 0.49454 c -0.03213,0 -0.05818,-0.026048 -0.05818,-0.058182 v -0.058182 c 0,-0.031328 0.02476,-0.056873 0.05578,-0.058132 -0.01,-0.059433 -0.04994,-0.1086863 -0.10382,-0.1316263 -0.01034,0.0094 -0.02411,0.01521 -0.03923,0.01521 H 0.29091 c -0.01512,0 -0.02888,-0.0058 -0.03923,-0.01521 -0.05388,0.02294 -0.09387,0.072194 -0.103821,0.1316263 0.03102,0.00126 0.05578,0.026804 0.05578,0.058132 v 0.058182 c 0,0.032134 -0.02605,0.058182 -0.05818,0.058182 h -0.05818 c -0.03213,0 -0.05818,-0.026048 -0.05818,-0.058182 v -0.058182 c 0,-0.032134 0.02605,-0.058182 0.05818,-0.058182 h 0.0018 c 0.0094,-0.075229 0.05467,-0.1393083 0.118171,-0.1745453 H 0.10859 c -0.01006,0.01739 -0.02886,0.02909 -0.0504,0.02909 -0.03213,0 -0.05818,-0.02605 -0.05818,-0.05818 0,-0.03213 0.02605,-0.05818 0.05818,-0.05818 0.02154,0 0.04034,0.0117 0.0504,0.02909 z"
     id="路径"
     fill="#09244b"
     inkscape:label="vector"
     style="fill:#ffffff;fill-opacity:1;fill-rule:nonzero;stroke:none;stroke-width:0.0290909" /></svg>
